<?xml version="1.0"?>
<svg width="29" height="34" xmlns="http://www.w3.org/2000/svg" xmlns:svg="http://www.w3.org/2000/svg" transform="rotate(180deg)">
 <!-- <path fill-rule="evenodd" clip-rule="evenodd" d="M8 10.9998V15.5583C8.61641 14.8543 9.73715 14.3779 11.0186 14.3779H12.4111V19.6771C12.4111 21.087 12.0323 22.321 11.4703 22.9998H17.5276C16.9667 22.3203 16.5888 21.0879 16.5888 19.6798V14.3779H17.9814C19.2628 14.3779 20.3836 14.8543 21 15.5583V10.9998C21 10.9998 8 10.9998 8 10.9998Z" fill="#333333"/> -->
 <g class="layer">
  <title>Layer 1</title>
  <path d="m0,3l29,0l0,14.58c0,3.74 -1.99,7.2 -5.23,9.07l-9.27,5.35l-9.27,-5.35c-3.24,-1.87 -5.23,-5.33 -5.23,-9.07l0,-14.58z" fill="#00a6f4" id="svg_1"/>
  <path d="m157,-48c-0.98,-1.04 -1,-2 -1,-2.81c0,-0.87 0,-1.88 0,-2.73c0,-0.62 0,-1.63 0,-2.73c0,-0.81 0,-1.25 0,-2.19c0,-1.04 0,-2.2 0.01,-2.81c0.01,-0.63 0.06,-1.93 0.11,-2.59c0.05,-0.66 0.21,-1.98 0.33,-2.62c0.24,-1.26 0.41,-1.87 0.58,-2.46c0.32,-1.15 0.51,-1.69 0.96,-3.22c0.14,-0.47 0.39,-1.37 0.57,-2.22c0.18,-0.82 0.32,-2.02 0.4,-2.8c0.07,-0.72 -0.02,-2.05 0.91,-2.24c0.68,-0.14 1.57,0.8 1.94,1.39c0.61,0.99 0.72,1.59 1,2.52c0.32,1.03 0.5,1.78 0.74,2.57c0.26,0.86 0.4,1.32 1,2.78c0.22,0.53 0.46,1.07 0.98,2.16c0.26,0.55 0.53,1.1 1.31,2.67c0.24,0.49 0.71,1.41 1.1,2.25c0.35,0.76 0.73,1.75 0.95,2.57l0.09,0.69l0.02,1.02l0,0.78" fill="none" id="svg_4"/>
  <text fill="#02170f" font-family="Sans-serif" font-size="24" id="svg_5" letter-spacing="0" stroke-width="0" text-anchor="middle" textLength="0" word-spacing="0" x="15" xml:space="preserve" y="24">M</text>
 </g>
</svg>